<?xml version="1.0" encoding="utf-8"?>
<!-- Generator: Adobe Illustrator 16.0.4, SVG Export Plug-In . SVG Version: 6.00 Build 0)  -->
<!DOCTYPE svg PUBLIC "-//W3C//DTD SVG 1.1//EN" "http://www.w3.org/Graphics/SVG/1.1/DTD/svg11.dtd">
<svg version="1.1" id="Layer_1" xmlns="http://www.w3.org/2000/svg" xmlns:xlink="http://www.w3.org/1999/xlink" x="0px" y="0px"
	 width="198.414px" height="47.335px" viewBox="0 0 198.414 47.335" enable-background="new 0 0 198.414 47.335"
	 xml:space="preserve">
<g>
	<path fill="#FFFFFF" d="M20.498,47.335l-0.487-0.226c-5.406-2.502-9.772-6.139-12.623-10.513
		c-6.836-10.489-7.062-21.325-7.3-32.796c-0.019-0.87-0.039-1.74-0.058-2.615L0,0h40.973l-0.028,1.186
		c-0.022,0.88-0.04,1.756-0.058,2.633c-0.242,11.464-0.468,22.293-7.302,32.778c-2.845,4.368-7.2,8.001-12.6,10.513L20.498,47.335z"
		/>
	<polygon fill="#FFFFFF" points="46.126,16.332 50.396,16.332 54.142,28.587 58.204,16.279 61.615,16.279 65.675,28.587 
		69.425,16.332 73.589,16.332 67.405,34.559 63.944,34.559 59.862,22.721 55.773,34.559 52.308,34.559 	"/>
	<path fill="#FFFFFF" d="M84.084,26.982l-2.402-5.869l-2.403,5.869H84.084z M79.893,16.328h3.676l7.753,18.23h-4.16l-1.654-4.062
		h-7.654l-1.656,4.062h-4.062L79.893,16.328z"/>
	<polygon fill="#FFFFFF" points="95.662,20.131 90.156,20.131 90.156,16.46 105.156,16.46 105.156,20.131 99.651,20.131 
		99.651,34.559 95.662,34.559 	"/>
	<polygon fill="#FFFFFF" points="108.185,16.46 121.837,16.46 121.837,19.996 112.142,19.996 112.142,23.671 120.677,23.671 
		120.677,27.217 112.142,27.217 112.142,31.018 121.966,31.018 121.966,34.559 108.185,34.559 	"/>
	<path fill="#FFFFFF" d="M134.265,25.252c1.943,0,3.055-1.035,3.055-2.56v-0.054c0-1.706-1.193-2.588-3.133-2.588h-3.953v5.201
		H134.265z M126.25,16.46h8.277c2.299,0,4.084,0.644,5.275,1.837c1.008,1.006,1.551,2.424,1.551,4.131v0.053
		c0,2.926-1.574,4.762-3.879,5.616l4.42,6.462h-4.656l-3.877-5.791h-3.127v5.791h-3.984V16.46z"/>
	<polygon fill="#FFFFFF" points="145.746,16.46 149.726,16.46 149.726,30.941 158.203,30.941 158.203,34.559 145.746,34.559 	"/>
	<path fill="#FFFFFF" d="M173.892,25.561v-0.054c0-3.099-2.273-5.688-5.48-5.688s-5.432,2.534-5.432,5.638v0.05
		c0,3.104,2.275,5.694,5.484,5.694C171.667,31.201,173.892,28.668,173.892,25.561 M158.814,25.561v-0.054
		c0-5.142,4.061-9.36,9.65-9.36c5.582,0,9.594,4.164,9.594,9.311v0.05c0,5.15-4.062,9.364-9.646,9.364
		S158.814,30.707,158.814,25.561"/>
	<path fill="#FFFFFF" d="M194.253,25.561v-0.054c0-3.099-2.277-5.688-5.486-5.688c-3.203,0-5.43,2.534-5.43,5.638v0.05
		c0,3.104,2.277,5.694,5.48,5.694C192.025,31.201,194.253,28.668,194.253,25.561 M179.175,25.561v-0.054
		c0-5.142,4.059-9.36,9.643-9.36c5.588,0,9.596,4.164,9.596,9.311v0.05c0,5.15-4.061,9.364-9.646,9.364
		C183.183,34.871,179.175,30.707,179.175,25.561"/>
	<g>
		<path fill="#FFFFFF" d="M56.23,7.301V2.533h1.837v4.719c0,1.357,0.677,2.059,1.797,2.059c1.119,0,1.8-0.68,1.8-1.998V2.533H63.5
			v4.706c0,2.526-1.421,3.764-3.659,3.764C57.6,11.003,56.23,9.754,56.23,7.301z"/>
		<path fill="#FFFFFF" d="M68.378,2.533h1.691l3.909,5.136V2.533h1.811v8.342h-1.562l-4.039-5.303v5.303h-1.811V2.533z"/>
		<path fill="#FFFFFF" d="M81.007,2.533h1.835v8.342h-1.835V2.533z"/>
		<path fill="#FFFFFF" d="M87.346,2.533h2.023l2.182,5.875l2.18-5.875h1.978l-3.37,8.398h-1.622L87.346,2.533z"/>
		<path fill="#FFFFFF" d="M100.128,2.533h6.291v1.633h-4.469v1.691h3.932V7.49h-3.932v1.753h4.527v1.632h-6.35V2.533z"/>
		<path fill="#FFFFFF" d="M111.246,2.533h3.812c1.061,0,1.881,0.297,2.43,0.848c0.465,0.464,0.715,1.119,0.715,1.904v0.025
			c0,1.344-0.727,2.191-1.787,2.586l2.037,2.979h-2.145l-1.785-2.672h-1.443v2.672h-1.834V2.533z M114.939,6.586
			c0.893,0,1.404-0.479,1.404-1.182V5.38c0-0.784-0.547-1.19-1.439-1.19h-1.824v2.396H114.939z"/>
		<path fill="#FFFFFF" d="M122.421,9.658l1.084-1.297c0.75,0.619,1.537,1.013,2.488,1.013c0.752,0,1.205-0.298,1.205-0.788V8.562
			c0-0.463-0.287-0.701-1.682-1.06c-1.678-0.428-2.764-0.895-2.764-2.55V4.93c0-1.514,1.217-2.516,2.92-2.516
			c1.215,0,2.252,0.381,3.098,1.061l-0.953,1.383c-0.738-0.513-1.465-0.822-2.17-0.822c-0.701,0-1.072,0.32-1.072,0.727v0.023
			c0,0.549,0.359,0.729,1.801,1.096c1.691,0.44,2.645,1.05,2.645,2.502v0.025c0,1.655-1.264,2.585-3.062,2.585
			C124.695,10.993,123.419,10.551,122.421,9.658z"/>
		<path fill="#FFFFFF" d="M133.833,2.533h1.834v8.342h-1.834V2.533z"/>
		<path fill="#FFFFFF" d="M142.83,4.225h-2.539V2.533h6.91v1.691h-2.539v6.65h-1.832V4.225z"/>
		<path fill="#FFFFFF" d="M154.087,7.585l-3.203-5.052h2.143l1.99,3.348l2.025-3.348h2.084l-3.203,5.016v3.326h-1.836V7.585z"/>
		<path fill="#FFFFFF" d="M169.552,6.728V6.707c0-2.375,1.873-4.316,4.447-4.316c2.57,0,4.418,1.918,4.418,4.289v0.027
			c0,2.369-1.871,4.31-4.445,4.31C171.4,11.017,169.552,9.101,169.552,6.728z M176.498,6.728V6.707c0-1.432-1.049-2.624-2.525-2.624
			s-2.502,1.169-2.502,2.597v0.027c0,1.428,1.051,2.618,2.529,2.618C175.474,9.325,176.498,8.158,176.498,6.728z"/>
		<path fill="#FFFFFF" d="M182.359,2.533h6.35v1.668h-4.518v1.775h3.98v1.669h-3.98v3.229h-1.832V2.533z"/>
	</g>
	<path fill="#FFD74F" d="M36.349,27.186l-15.854-11.97L4.772,27.607c-2.92-8.296-2.808-16.933-3.023-25.795h37.476
		C39.012,10.524,39.117,19.018,36.349,27.186z"/>
	<path fill="#FFD74F" d="M34.178,32.316c-0.57,1.104-1.204,2.197-1.915,3.289c-2.856,4.387-7.102,7.631-11.766,9.8
		c-4.687-2.169-8.929-5.413-11.785-9.8c-0.614-0.939-1.172-1.882-1.676-2.831l13.459-11.344L34.178,32.316z"/>
	<path fill="none" stroke="#231F20" stroke-width="1.1523" d="M20.497,45.405c-4.687-2.169-8.929-5.413-11.785-9.8
		C1.746,24.918,2.035,13.564,1.749,1.812h37.476c-0.287,11.752,0.003,23.105-6.962,33.793
		C29.406,39.992,25.161,43.236,20.497,45.405z"/>
	<path fill="#CD1543" d="M9.534,8.232C7.635,7.829,5.944,6.42,6.354,4.627c0.004-0.018-0.074-0.464-0.236-0.524
		C6.104,4.097,6.077,4.049,6.048,4.04C5.976,4.022,5.916,3.989,5.855,3.945C5.834,3.932,5.746,3.9,5.746,3.869
		C5.711,3.942,5.72,4.012,5.671,4.076C5.65,4.101,5.623,4.139,5.596,4.152C5.562,4.168,5.559,4.201,5.533,4.225
		C5.39,4.368,5.467,4.585,5.489,4.748C5.496,4.79,5.513,4.842,5.462,4.852C5.401,4.861,5.45,4.833,5.38,4.79
		C5.364,4.779,5.339,4.753,5.322,4.745C5.291,4.73,5.174,4.714,5.152,4.684c-0.02-0.03-0.01-0.039-0.039-0.064
		C5.047,4.561,5.041,4.442,4.993,4.32C4.984,4.299,4.965,4.194,4.965,4.168c0-0.119-0.31-0.314-0.189-0.215
		c0.042,0.033-0.006-0.049-0.173-0.09C4.499,3.836,4.378,3.841,4.26,3.859c-0.024,0.002-0.047,0.02-0.064,0.032
		c-0.119,0.095-0.233,0.209-0.39,0.215c0.026-0.019,0.04,0.014,0.053,0.03c0.075,0.094,0.02,0.215,0.064,0.32
		s0.121,0.184,0.208,0.256c0.087,0.066,0.238-0.023,0.306,0.095c0,0,0.14,0.034,0.001,0.173C4.184,5.239,3.899,5.031,3.687,5.508
		c0.32-0.138,0.357,0.35,0.492,0.369c0.612,0.082,1.078,0.189,1.413,0.811c0.205,0.378-0.367,0.396,0.15,0.484
		c0.264,0.044,0.44,0.18,0.571,0.364C6.454,7.73,6.472,7.995,6.624,8.178c0.107,0.131,0.148,0.156,0.279,0.266
		C6.962,8.492,7.149,8.54,7.222,8.558C7.292,8.578,7.334,8.614,7.4,8.639c0.071,0.025,0.146,0.051,0.207,0.1
		c0.052,0.043,0.182,0.088,0.211,0.146C7.872,8.989,7.828,9.094,7.885,9.2c0.018,0.027,0.1,0.003,0.131,0.014
		c0.032,0.013,0.105,0.018,0.125,0.013c0.125-0.029,0.154-0.039,0.247-0.049c0.142-0.016,0.125,0.029,0.308,0.02
		c0.04,0,0.054,0.029,0.107,0.029c0.034,0,0.097,0.037,0.107,0.005C8.966,9.059,9.058,8.889,9.158,8.72
		c0.104-0.169,0.094-0.187,0.224-0.364C9.367,8.361,9.551,8.234,9.534,8.232"/>
	<path fill="#CD1543" d="M4.797,8.453c0.557,0.299,0.482,1.038,0.98,1.277c0.894,0.425,1.957,0.716,2.905,0.25
		c-0.212,0.658,0.021,1.211-0.07,1.287c-0.296,0.236-1.201-0.047-1.781-0.277c-0.399-0.158-0.723,0.436-1.163,0.385
		c0.021-0.055,0.072-0.205,0.043-0.301c-0.07-0.215-0.127-0.274-0.482-0.232c-0.23,0.024-0.134,0.212-0.479,0.383
		c-0.137-0.08-0.428-0.171-0.471,0.087c-0.021,0.121-0.263-0.418-0.213-0.51c0.227-0.407,0.271-0.501,0.256-0.587
		c-0.027-0.135-0.516-0.312-0.578-0.199C3.588,10.281,3.14,9.153,4.466,9.227c-0.356-0.23-0.315-0.27-0.233-0.541
		C4.243,8.647,4.109,8.509,4.02,8.604C3.99,8.498,4.06,8.386,4.142,8.375C4.362,8.343,4.575,8.333,4.797,8.453"/>
	<path fill="#CD1543" d="M7.432,5.725c0.804,0.186,2.006-0.851,2.702,0.371C9.62,5.908,8.098,6.724,7.432,5.725"/>
	<path fill="#CD1543" d="M14.153,7.502c-0.015,1.047-1.101,2.177-0.22,3.176c-0.361-0.006-0.787-0.131-1.037-0.332
		c-0.14-0.112-0.108,0.498-0.089,0.625c0.016,0.106-0.668-0.646-0.925-0.465c-0.727,0.523-1.042,0.738-2.12,0.778
		c-0.299,0.011-0.455,0.253-0.54,0.514c-0.244-0.5-0.064-1.637,0.077-2.141c0.382-1.386,1.773-1.796,2.889-2.46
		c0.799-0.474,1.142-1.405,1.102-2.313C13.858,5.598,14.167,6.611,14.153,7.502"/>
	<path fill="#CD1543" d="M9.047,19.293c0.136,0.031,0.034,0.143-0.02,0.179c-0.108,0.074-0.188,0.164-0.256,0.274
		C8.718,19.83,8.68,19.917,8.702,20.02c0.012,0.075,0.037,0.139,0.065,0.211c0.019,0.041,0.057,0.064,0.087,0.1
		c0.016,0.013,0.064,0.073,0.065,0.08c-0.029-0.105,0.118-0.212,0.152-0.193c0.69,0.402,0.731-0.411,1.146-0.687
		c0.175-0.119,0.572,0.019,0.471,0.378c0.412-0.222,0.533-0.775,0.855-1.123c0.709-0.77,1.706-1.284,2.651-1.701
		c-0.343-0.361-0.846-0.669-1.101-1.084c-0.126-0.207-0.277-0.611,0.002-0.536c1.163,0.302,1.814-0.405,1.941-1.321
		c1.722,0.225,2.171-1.403,2.402-2.632c0.112-0.598,0.439-0.651,0.083-1.665c-0.149-0.426,0.762-0.565,0.606-1.3
		c-0.043-0.203-0.293-0.405-0.44-0.428c0.14,0.396-0.522,0.493-0.596,0.656c-0.111,0.255-0.275,0.457-0.296,0.72
		c-0.56-0.774-0.107-1.709,0.42-2.436c0.767-1.058,2.36-0.503,3.031,0.179c0.013-0.342-0.254-0.775-0.471-0.986
		c0.627-0.081,1.307,0.302,2.163-0.15c0.493-0.265,0.991-0.489,1.222-1.072c-1.049,0.144-2.473-0.664-3.419-0.83
		c-1.763-0.307-2.946,0.897-3.578,2.332c-0.629,1.434-0.228,2.503,0.456,3.575c0.173,0.271-0.605,0.094-0.912,0.252
		c-0.298,0.154-0.42,0.521-0.352,0.848c0.375-0.403,1.373-0.155,1.463,0.537c0.122,0.93-0.818,2.289-1.727,1.883
		c-0.972-0.437-1.523-1.463-1.846-2.615c-0.833,0.715-2.367,0.124-3.082,0.822c-0.679,0.665,1.059,1.115,1.733,1.43
		c0.249,0.118,0.498,0.371,0.458,0.686c-1.059-0.62-2.335,0.083-2.274,1.215c0.049,0.846,1.085,1.371,1.945,1.443
		c0.36,0.03,0.576,0.428,0.139,0.701c-0.764,0.479-1.618,1.014-2.443,0.147c-0.138-0.145-0.631-0.052-0.73,0.21
		c-0.045,0.129-0.062,0.324-0.043,0.451c0.046-0.076,0.098-0.188,0.167-0.18c0.081,0.012,0.181,0.099,0.17,0.158
		c-0.071,0.423-0.629,0.15-0.802,0.479c-0.003,0.007-0.012,0.015-0.018,0.023c-0.01,0.026-0.024,0.049-0.038,0.074
		c-0.112,0.223-0.267,0.366,0.01,0.539c-0.006-0.041,0.138,0.179,0.136,0.218c0.013-0.206,0.226-0.2,0.226-0.2l0.124,0.014
		L9.047,19.293z"/>
	<path fill="#CD1543" d="M5.462,15.31c-0.108-0.033-0.223,0.007-0.331,0.057c-0.069,0.028-0.152-0.003-0.194,0.066
		c-0.023,0.044-0.041,0.091-0.026,0.138c0.006,0.027,0.018,0.074,0.04,0.091c-0.146-0.013-0.281-0.11-0.394-0.21
		c-0.035-0.031-0.059-0.07-0.094-0.104c-0.021-0.024-0.02-0.067-0.032-0.098c-0.017-0.037-0.011-0.074-0.011-0.109
		c-0.004-0.1-0.006-0.203,0.039-0.295c0.021-0.043,0.04-0.085,0.072-0.123c0.023-0.03,0.048-0.053,0.075-0.079
		c0.073-0.072,0.156-0.126,0.256-0.155c0.142-0.043,0.298-0.031,0.434,0.029c0.108,0.048,0.241,0.042,0.354,0.073
		c0.061,0.017,0.175-0.158,0.094-0.181c-0.362-0.086-0.36-0.183-0.496-0.551c-0.062-0.07-0.146,0.013-0.181,0.049
		c-0.002-0.7,0.83-0.747,1.178-0.469c0.514,0.413,0.128,1.225,0.76,1.447c0.329,0.115,0.678,0.205,1.017,0.062
		c0.612-0.26,0.002-0.875,0.199-1.392c0.399-1.05,1.282-1.104,2.333-0.095c-0.941,0.312-1.38,1.558-0.866,2.379
		c-0.829-0.328-1.876,0.223-2.459,0.594c0.543-0.542-0.218-0.98-0.411-0.885l-0.229,0.161c-0.11,0.142-0.121,0.284-0.257,0.421
		c-0.077,0.072-0.119,0.085-0.221,0.111C5.973,16.28,5.888,16.27,5.765,16.19c-0.022-0.015-0.094,0.017-0.11,0.034
		c-0.067,0.083-0.002,0.123-0.004,0.152c-0.013-0.009-0.099-0.078-0.111-0.088c-0.08-0.059-0.169-0.111-0.217-0.192
		c-0.049-0.077-0.083-0.281-0.028-0.395c0.057-0.108,0.165-0.144,0.239-0.22c0.069-0.068-0.013-0.177-0.098-0.19"/>
	<path fill="#CD1543" d="M25.655,6.061c0.077,0.05-0.005,0.184-0.091,0.207c-0.102,0.031-0.243-0.013-0.331,0.021
		c-0.395,0.146-0.396,1.119-0.342,1.006c0.06-0.126,0.353-0.043,0.54-0.008c0.305,0.064,0.536-0.559,0.737-0.541
		c0.476,0.045,0.92,0.637,1.102,1.023c0.031,0.072-0.199,0.074-0.218,0.312c0.649-0.062,1.197,0.359,1.663,0.744
		c0.229-0.396,0.458-0.642,0.718-0.898c-0.972-0.949-2.907-1.24-2.61-2.969c0.039-0.221-0.211-0.416-0.321-0.525
		c-0.125-0.119-0.414-0.127-0.589-0.17c0.185,0.383-0.149,0.42-0.102,1.029c0,0.02-0.056,0.006-0.075-0.002
		c-0.115-0.051-0.216-0.123-0.325-0.192c-0.102-0.062-0.195-0.043-0.307-0.03c-0.066,0.01-0.128,0.041-0.185,0.082
		c-0.092,0.065-0.139,0.152-0.204,0.243c-0.012,0.017-0.024,0.037-0.039,0.053c-0.021,0.022-0.061,0.085-0.065,0.12
		c0.052-0.004,0.208,0.008,0.235,0.049c0.045,0.07,0.047,0.15,0.102,0.219c0.065,0.086,0.12,0.088,0.219,0.13
		c0.151,0.063,0.285,0.091,0.452,0.079"/>
	<path fill="#CD1543" d="M28.172,5.366c0.608-0.044,1.211-0.511,1.884,0.277c-0.124-0.06-0.27-0.079-0.345-0.021
		c-0.743,0.6-1.646,0.396-2.122-0.346C27.782,5.248,28.017,5.379,28.172,5.366"/>
	<path fill="#CD1543" d="M30.803,7.571c0.998-0.505,2.009-0.91,2.419-2.15c0.079-0.241,0.266,0.361,0.278,0.396
		c0.527,1.512-0.525,3.014-0.308,4.557c-0.353-0.215-0.75-0.363-1.135-0.375c-1.371-0.039-1.696,0.794-1.772,0.717
		c-0.377-0.382-1.456-0.705-1.377-0.635C28.267,9.487,30.115,7.923,30.803,7.571"/>
	<path fill="#CD1543" d="M28.073,17.635c0.137,0.211-0.045-0.12,0.109,0.238c0.726-0.303,1.473-0.646,2.271-0.325
		c-0.353-1.624,0.835-2.019,0.929-2.263c0.15-0.391-0.643-1.166-1.241-0.95c-0.762,0.272-0.445,1.235-0.59,1.909
		c-0.078,0.375-0.54,0.645-0.923,0.514c-0.631-0.219-0.886-0.806-1.039-1.467c-0.105-0.437-0.96-0.49-1.146-0.131
		c-0.526,1.02,0.313-0.119,0.258,0.655c-0.009,0.132-0.613,0.036-0.748,0.492c-0.093,0.312,0.205,0.523,0.577,0.631
		c0.07,0.022-0.072-0.153,0.022-0.192c0.068-0.023,0.343,0.121,0.31,0.139c-0.36,0.22-0.452,0.729,0.19,0.952
		c0.005,0.001-0.047-0.185,0-0.22c0.505-0.375,1.029,0.029,1.029,0.018"/>
	<path fill="#CD1543" d="M17.199,27.916c0.602,0.278,0.794-0.021,1.587-0.148c0.108-0.02,0.554,0.272,0.685,0.419
		C18.678,28.312,17.713,29,17.199,27.916"/>
	<path fill="#CD1543" d="M16.879,28.549c-0.038-0.04-0.091-0.059-0.14-0.077c-0.048-0.022-0.102-0.038-0.159-0.048
		c-0.012-0.004-0.112-0.025-0.128-0.031c-0.003,0.037,0.042,0.129,0.016,0.15c-0.062,0.06-0.084,0.045-0.137,0.121
		c-0.018,0.029-0.038,0.06-0.044,0.092c-0.014,0.071-0.046,0.148-0.055,0.229c-0.002,0.04,0.016,0.135,0.023,0.172
		c0.005,0.02,0.049,0.103,0.06,0.126c0,0,0.096,0.104,0.09,0.099c0.113,0.113,0.022,0.049,0.159,0.183
		c0.069,0.067-0.032,0.185-0.101,0.162c-0.465-0.134-0.53-0.673-0.953-0.839c-0.307-0.117-0.752,0.122-0.799,0.591
		c0.104-0.03,0.213,0.012,0.232,0.098c0.114,0.472,0.807,0.19,0.823,0.522c0.013,0.217-0.519-0.036-0.729,0.101
		c-0.276,0.187-0.315,0.718-0.07,1.03c0.253-0.241,0.566,0.109,0.812-0.065c0.172-0.122,0.232-0.296,0.408-0.372
		c0.533-0.235,0.69,0.255,0.572,0.747c0.286-0.134,0.964-0.271,1.117-0.317c0.281-0.073,0.295-0.722,0.639-0.96
		c-0.487-0.003-1.09-0.214-1.227-0.689c-0.012-0.051,0.022-0.11,0.027-0.167c0.012-0.182-0.005-0.356-0.073-0.523
		c-0.006-0.018-0.024-0.037-0.038-0.059c-0.021-0.027-0.035-0.055-0.055-0.084c-0.049-0.066-0.12-0.096-0.189-0.142
		c-0.029-0.018-0.068-0.023-0.092-0.056"/>
	<path fill="#CD1543" d="M13.299,31.903c0.212,0.415-0.837-0.247-1.231,0.364c-0.126,0.197-0.059,0.642-0.059,0.89
		c0.242-0.218,0.482,0.197,0.933-0.2c0.05,0.045,0.104,0.072,0.034,0.143c-0.166,0.168-0.259,0.376-0.171,0.578
		c0.055,0.133,0.43,0.396,0.432,0.377c0.039-0.273,0.5,0,0.573-0.533c0.03-0.221,0.095-0.582,0.412-0.451
		c0.289,0.119,0.349,0.448,0.281,0.771c0.462-0.152,1.271-0.623,1.757-0.273c0.65,0.47,1.719,0.662,2.48,0.898
		c-0.506-0.35-0.666-1.264-0.581-1.86c-1.198,0.234-2.459,0.195-3.569-0.32c-0.305-0.14-0.263-0.493-0.354-0.781
		c-0.103-0.325-0.514-0.624-0.886-0.599c-0.201,0.016-0.681,0.438-0.588,0.457c-0.031-0.008-0.03,0.062-0.046,0.09
		c0.089-0.056,0.203,0,0.244,0.099c0.029,0.066,0.059,0.142,0.115,0.196C13.143,31.817,13.262,31.832,13.299,31.903"/>
	<path fill="#CD1543" d="M16.174,38.455c0.23-0.286,0.424-0.134,0.525-0.131c0.242,0.008,0.227,0.352,0.202,0.569
		c0.954-0.46,1.862-1.118,2.98-0.878c-0.652-0.682-0.421-2.146,0.499-2.324c0.003,0-0.593-0.098-0.656-0.137
		c-0.801-0.507-1.779-0.992-2.317,0.071c-0.267,0.527,0.224,0.954,0.592,1.393c0.066,0.08-0.042,0.124-0.127,0.148
		c-0.877,0.224-2.489,0.356-2.562-0.954c-0.007-0.131-0.345-0.242-0.562-0.235c-0.649,0.021-0.64,0.847-0.566,0.79
		c0.143-0.109,0.576-0.072,0.524,0.263c-0.049,0.309-0.654-0.165-0.894,0.146c-0.203,0.259-0.197,0.687-0.055,0.975
		c-0.025-0.107,0.095-0.185,0.161-0.196c0.672-0.111,0.71,0.121,0.511,0.775c-0.015,0.049,0.197,0.458,0.341,0.496
		c-0.013-0.005-0.011-0.094,0.009-0.124c0.021-0.032,0.053-0.055,0.087-0.065c0.072-0.027,0.147-0.021,0.222-0.039
		c0.034-0.014,0.06-0.034,0.094-0.057c0.052-0.031,0.089-0.078,0.128-0.125c0.156-0.197,0.293-0.451,0.557-0.475
		c0.123-0.012,0.201,0.043,0.304,0.109"/>
	<path fill="#CD1543" d="M23.127,41.494c0.613-0.611,1.06-1.425,1.717-2.021c-0.721-0.425-1.613-0.868-1.709-1.819
		c-0.008-0.064,0.102-0.136,0.125-0.124c1.002,0.563,2.354,0.606,3.076-0.417c0.583-0.826,0.835-2.171,1.974-2.244
		c-0.378-0.73,0.048-1.568,0.67-1.951c-0.21-0.08-0.48-0.253-0.716-0.209c-0.288,0.049-0.411,0.438-0.739,0.5
		c0.516-1.734-0.479-4.157-2.391-4.117c-0.357,0.006-0.821,0.295-0.939,0.688c-0.11,0.368-0.167,0.833,0.1,1.149
		c0.626,0.748,1.077,1.564,0.88,2.556c0.447-0.386,0.857-0.952,0.843-1.555c-0.003-0.153,0.27-0.044,0.312-0.104
		c0.523-0.768-0.331-1.241-0.783-1.724c-0.126-0.131,0.193-0.332,0.235-0.316c1.637,0.486,1.792,2.506,1.09,3.818
		c-0.187-0.234-0.881-0.156-1.115-0.236c0.768,0.387,0.568,0.441,0.534,0.569c-0.055,0.23-0.744,0.129-0.877,0.3
		c-0.23,0.293-0.403,0.424-0.421,1.398c0.318-0.342,0.734-0.864,1.186-0.633c0.965,0.498-0.048,2.166-0.958,2.442
		c-0.777,0.233-1.496-0.011-1.977-0.69c-0.697-0.979-0.192-2.165-0.685-3.157c-0.413,0.1-0.319,0.64-0.534,0.544
		c-0.758-0.352-1.188-1.162-1.737-1.842c-0.228,0.083-0.327,0.293-0.547,0.284c-0.325-0.015-0.937-0.118-1.067,0.049
		c-0.15,0.188-0.261,1.564,1.079,2.064c0.91,0.339,1.628,0.641,2.201,1.352c-0.384,0.03-0.518-0.155-0.83-0.169
		c-0.311-0.011-0.505,0.111-0.738,0.23c-0.224,0.117-0.484,0.553-0.439,0.902c0.208,1.668,2.166,1.686,3.066,2.744
		c0.155,0.178-0.236,0.9-0.604,1.195c-0.314,0.251-1.067-0.377-0.946-0.91c0.1-0.425-0.929-0.709-1.287-0.225
		c0.142-0.014,0.179,0.08,0.165,0.148c-0.064,0.391,0.423,0.405,0.407,0.605c-0.021,0.273-0.259-0.119-0.449-0.15
		c-0.412-0.086-0.826,0.059-1.068,0.393c-0.071,0.1-0.235,0.261-0.164,0.43c0.317-0.154,0.482,0.338,0.777,0.188
		c0.182-0.094,0.327-0.252,0.545-0.197c0.086,0.023,0.174,0.14,0.096,0.193c-0.576,0.368-1.039,0.887-0.622,1.479
		c0.013-0.139,0.121-0.234,0.209-0.26c0.168-0.046,0.392,0.067,0.556,0.015c0.268-0.091,0.13-0.359,0.233-0.548
		c0.159-0.301,0.704-0.801,1.013-0.437c0.057,0.064,0.012,0.307-0.152,0.313c0.168-0.007,0.32,0.16,0.464,0.127
		c0.041-0.004,0.084-0.004,0.121-0.022c0.031-0.017,0.068-0.024,0.094-0.05c0.067-0.069,0.145-0.141,0.156-0.249
		c0.124,0.011,0.281,0.021,0.362-0.083c0.078-0.105,0.176-0.188,0.264-0.268"/>
	<path fill="#CD1543" d="M20.336,29.44c1.073-0.3,2.266-0.858,2.523-2.051c0.325,0.196,0.428,0.642,0.43,0.915
		c0.024,1.492-0.628,2.783-0.311,4.35c0.034,0.178,0.357,0.731,0.211,0.666c-0.179-0.078-0.558-0.436-0.764-0.271
		c-0.259,0.202-0.243,0.526-0.369,0.45c-0.472-0.285-0.97-0.711-1.198-1.256c-0.088-0.207-0.052-0.648-0.11-0.588
		c-0.358,0.392-1.093,0.475-1.636,0.557c0.123-0.11,0.235-0.554,0.215-0.646c-0.428-0.215-1.043,0.518-1.031,0.424
		c0.021-0.234,0.047-0.311,0.07-0.375C18.686,30.68,19.285,29.729,20.336,29.44"/>
	<path fill="#CD1543" d="M12.359,3.989c0.278-0.008,0.483-0.179,0.661-0.367C13.006,3.778,13.236,4,13.151,4.168
		c-0.105,0.209-0.377,0.337-0.427,0.531c-0.112,0.396,0.21,0.787-0.024,1.182c-0.69,1.168-2.194,0.782-3.222,1.037
		c0.072-0.123-0.017-0.311-0.095-0.362c0.455,0.058,1.064-0.04,1.187-0.386c0.147-0.424,0.223-0.739,0.023-1.089
		c-0.327-0.579-1.012-0.31-1.526-0.107c-0.08-0.358,0.257-0.577,0.45-0.626c0.544-0.144,1.036-0.379,1.545-0.569
		C11.505,3.613,11.906,4,12.359,3.989 M11.598,4.569c0.046-0.021,0.068-0.052,0.063-0.057c-0.389-0.546-0.857-0.49-1.056-0.005
		C10.47,4.836,11.252,4.73,11.598,4.569"/>
	<path fill="#CD1543" d="M32.216,6.188c-0.147,0.126-0.394,0.12-0.56,0.237c-0.102,0.072-0.194,0.144-0.3,0.209
		c-0.049,0.028-0.197,0.094-0.25,0.111c-0.151,0.037-0.119,0.019-0.257,0.037c-0.082,0.012-0.121,0.016-0.204,0.016
		c-0.082,0-0.337,0.008-0.417,0.006c-0.195-0.004-0.229,0.01-0.426-0.021c-0.111-0.019-0.219-0.049-0.326-0.087
		c-0.07-0.021-0.146-0.035-0.222-0.035c0.008-0.081,0.018-0.163,0.08-0.218c0.082-0.068,0.099-0.006,0.216-0.017
		c0.006,0,0.17,0.013,0.176,0.013c0.026-0.002,0.06-0.002,0.091-0.004c0.049-0.009,0.094-0.02,0.139-0.041
		c0.061-0.029,0.123-0.046,0.177-0.087c0.017-0.019,0.039-0.03,0.059-0.052c0.039-0.035,0.092-0.053,0.128-0.098
		c0.111-0.138,0.195-0.27,0.205-0.443c0.012-0.131,0.021-0.265,0-0.398c-0.006-0.021-0.009-0.041-0.01-0.062
		c-0.008-0.104-0.06-0.198-0.11-0.295c-0.298-0.568-1.013-0.014-1.504-0.038c0-0.106-0.011-0.308,0.045-0.378
		c0.35-0.452,0.89-0.229,1.172-0.437c0.942-0.7,1.193-0.196,2.181,0.077c0.295,0.082,0.719-0.104,0.997-0.224
		c0.07-0.028,0.068,0.417,0.034,0.506c-0.117,0.313-0.442,0.298-0.555,0.577c-0.166,0.413-0.192,0.993-0.627,1.198 M31.534,4.361
		c0.043-0.023-0.034,0.034,0-0.002c-0.425-0.212-0.979-0.49-1.173,0.074C30.218,4.852,31.165,4.562,31.534,4.361"/>
	<path fill="#CD1543" d="M21.692,26.396c0.436,0.104,0.912,0.115,1.193-0.267c0.14,0.593-0.403,0.667-0.502,0.955
		c-0.153,0.44-0.144,0.88-0.569,1.109c-0.849,0.453-1.912,0.997-2.886,1.073c0.008-0.118-0.074-0.337,0.082-0.346
		c0.34-0.014,0.606-0.268,0.684-0.47c0.105-0.282-0.015-0.962-0.27-1.095c-0.294-0.156-0.551,0.082-0.82,0.201
		c-0.113-0.3,0.353-0.793,1.083-0.752c-0.02-0.001,0.361-0.414,0.343-0.402C20.509,26.076,21.031,26.24,21.692,26.396
		 M20.395,27.159c0.168,0.062,0.669-0.214,0.851-0.315c0.043-0.023,0.075-0.068,0.109-0.104c0.003-0.003-0.003-0.013-0.011-0.013
		c-0.144-0.031-0.272-0.043-0.414-0.061c-0.104-0.011-0.184-0.08-0.29-0.102c-0.026-0.006-0.053-0.002-0.08,0.008
		c-0.04,0.017-0.056,0.045-0.087,0.061c-0.051,0.022-0.122,0.022-0.17,0.062c-0.046,0.044-0.087,0.084-0.1,0.146
		c-0.021,0.068-0.004,0.169,0.045,0.229C20.285,27.118,20.342,27.141,20.395,27.159"/>
	<path fill="#CD1543" d="M34.933,22.259c-0.014-0.143,0.347-0.571,0.354-0.887c0.033-1.067,0.679-1.572,0.698-2.714
		c0.004-0.299-1.23-0.577-1.283-1.221c-0.025-0.318-0.133-0.778,0.188-0.773c0.409,0.008,0.81-0.063,1.101-0.319
		c1.29-1.138,0.2-2.69,0.044-4.06c-0.035-0.301,0.522-0.947,0.506-1.16c-0.089-1.162-0.305-2.225,0.11-3.367
		c-0.324,0.291-0.423,0.77-0.695,1.017c-0.132,0.12-0.196-0.147-0.188-0.192c0.164-1.006,0.563-1.886,1.029-2.838
		c0.551-1.135,0.273-2.055-0.746-2.391c-0.932-0.311-1.834,0.557-1.936,1.453c-0.092,0.816,0.162,1.799,0.357,2.471
		c0.054,0.195,0.021,0.418,0.062,0.588c0.168-0.676,0.187-1.383,0.175-2.1c-0.002-0.176,0.138-0.409,0.316-0.463
		c0.605-0.175,0.921,0.264,0.88,0.605c-0.133,1.074-0.351,1.895-0.606,2.959c-0.292,1.221,0.144,2.426,0.271,3.606
		c-0.466-0.272-0.974-0.286-1.153,0.44c-0.099,0.388,0.25,0.795,0.357,1.135c0.011-0.463,0.449-1.098,0.875-0.813
		c0.523,0.347,0.542,2.015,0.428,2.238c-0.255,0.482-0.672,0.829-1.252,0.656c-0.326-0.095-0.193-0.579-0.39-0.782
		c-1.041-1.077-1.516-2.363-1.604-3.853c-0.013-0.216,0.102-0.788,0.069-0.798c-1.362-0.562-1.988-0.003-2.555,0.798
		c-0.097-0.243-0.614-0.582-0.657-0.506c-0.257,0.48-0.183,1.349,0.203,1.683c1.049,0.911,2.091,1.52,2.681,2.817
		c-0.631,0.081-1.246,0.263-1.487,0.921c-0.253,0.689-0.166,1.643,0.559,1.922c0.593,0.228,1.608-0.025,1.831,0.004
		c0.629,0.082,1.332,0.622,1.233,1.217c-0.005,0.028-0.269,1.418-0.87,1.074c-0.326-0.186-0.143-0.949-0.639-1.064
		c-0.667-0.165-0.831,0.768-0.748,0.688c0.214-0.201,0.361,0.131,0.773,0.362c-1.397-0.305-0.962,0.976-0.913,0.836
		c0.073-0.202,0.326,0.006,0.827-0.025c0.019,0-0.109,0.104-0.115,0.111c-0.079,0.131-0.117,0.193-0.174,0.332
		c-0.029,0.062-0.024,0.133-0.017,0.201c0.008,0.066,0.031,0.129,0.067,0.188c0.007,0.013,0.02,0.021,0.035,0.03
		c0.007,0.002,0.026,0.035,0.03,0.035c0.029,0.002-0.027-0.099,0.054-0.105c0.021-0.002,0.078-0.012,0.094-0.006
		c0.037,0.014,0.086,0.04,0.123,0.048c0.037,0.011,0.073,0.019,0.114,0.023c0.096,0.013,0.129,0.015,0.212-0.013
		c0.071-0.027,0.142-0.04,0.207-0.087c-0.088,0.06,0.1-0.093,0.094-0.074c0.085-0.185,0.139-0.132,0.159-0.165
		c0.148-0.283,0.277-0.311,0.604-0.271c0.033,0.005,0.093,0.073,0.113,0.101c0.023,0.035,0.09,0.213,0.079,0.146
		C34.841,22.051,34.922,22.135,34.933,22.259"/>
	<path fill="#CD1543" d="M24.851,9.388c-0.084-0.056-0.114-0.185-0.174-0.238c-0.015-0.02-0.031-0.04-0.05-0.062
		c-0.029-0.029-0.044-0.072-0.054-0.113c-0.059-0.2-0.029-0.438,0.151-0.568c0.009-0.006,0.006-0.016,0.009-0.023
		c0.01-0.02,0.037-0.027,0.042-0.044c0.006-0.017,0.034-0.017,0.025-0.04c0.012,0.007,0.013-0.012,0.018-0.016
		c0.036-0.045,0.038-0.129-0.031-0.152c0.057,0.005,0.115,0.001,0.174,0.017c0.022,0.005,0.048,0.011,0.068,0.014
		c0.221,0.028,0.499,0.128,0.558,0.353L25.664,8.6c0.23,0.537,0.152,1.85,1.432,2.165c0.667,0.164,1.337,0.372,2.02,0.36
		c-0.164,0.665-0.162,1.51,0.364,1.993c-0.767-0.419-1.277-0.332-1.947-0.963c-0.296-0.281-0.99-0.669-1.326-0.612
		c-0.139,0.026,0.191-0.442-0.115-0.533c-0.203-0.061-0.742-0.047-0.835,0.091c-0.442,0.666-0.908,0.663-1.064,0.796
		c0.182-0.153-0.724-0.891,0.399-1.289c0.106-0.039,0.146-0.285,0.014-0.345c-0.22-0.104-0.402,0.048-0.619,0.174
		c-0.249,0.15-0.306-0.392-0.696-0.19c-0.081-1.155,0.948-1.256,1.562-0.533c0.043,0.053,0.215-0.013,0.144-0.076L24.851,9.388z"/>
	<polygon fill="#231F20" points="4.551,26.738 20.495,14.06 36.463,26.391 35.808,28.364 20.495,16.68 5.327,28.835 	"/>
	<polygon fill="#231F20" points="6.589,31.951 20.495,20.569 34.473,31.361 33.519,33.277 20.495,23.271 7.564,33.773 	"/>
</g>
</svg>
